# xmcd
# 
# Track frame offsets:
#     150
#     19200
#     32887
#     51550
#     69700
#     82712
#     101137
#     114637
#     131587
#     144850
#     166650
#     189025
#     199687
# 
# Disc length: 2829
# 
# Revision: 2
# Processed by: cddbd v1.5.2PL0 Copyright (c) Steve Scherf et al.
# Submitted via: fre:ac v1.0.31
# 
DISCID=ab0b0b0d
DTITLE=Kina - Parlami Ancora
DYEAR=1992
DGENRE=Hardcore
TTITLE0=Strade Vuote
TTITLE1=Uomini In Lotta
TTITLE2=Tempo Di Cambiare
TTITLE3=L'Altra Faccia
TTITLE4=Lo Specchio
TTITLE5=La Loro Libertà
TTITLE6=Mondo Mai Visto
TTITLE7=Ancora Contro Tutti
TTITLE8=Il Suo Silenzio
TTITLE9=L'Assalto Del Tempo
TTITLE10=Biko
TTITLE11=Chicago
TTITLE12=Fu Il Vento
EXTD=YEAR: 1994
EXTT0=
EXTT1=
EXTT2=
EXTT3=
EXTT4=
EXTT5=
EXTT6=
EXTT7=
EXTT8=
EXTT9=
EXTT10=
EXTT11=
EXTT12=
PLAYORDER=
